<svg width="102" height="40" fill="none" xmlns="http://www.w3.org/2000/svg"><path stroke="#E6EDE6" d="M.5.5h101v38.245H.5z"/><path d="M15.847 28.551c-1.344 0-2.373-.383-3.087-1.148-.697-.765-1.046-1.845-1.046-3.24v-9.592c0-1.394.349-2.474 1.046-3.24.714-.765 1.743-1.147 3.087-1.147 1.343 0 2.364.382 3.061 1.148.714.765 1.072 1.845 1.072 3.24v1.887h-2.654v-2.066c0-1.106-.467-1.658-1.403-1.658-.935 0-1.403.552-1.403 1.658v9.974c0 1.089.468 1.633 1.403 1.633.936 0 1.403-.544 1.403-1.633v-2.73h2.654v2.526c0 1.395-.358 2.475-1.072 3.24-.697.765-1.718 1.148-3.061 1.148zm5.811-18.112h4.159c1.445 0 2.5.34 3.163 1.02.663.663.995 1.692.995 3.087v1.097c0 1.854-.613 3.027-1.837 3.52v.051c.68.204 1.156.621 1.429 1.25.289.63.433 1.471.433 2.526v3.138c0 .51.017.926.051 1.25.034.306.12.612.255.918H27.45a4.09 4.09 0 01-.204-.816c-.034-.256-.05-.715-.05-1.378v-3.265c0-.817-.137-1.386-.409-1.71-.255-.323-.706-.484-1.352-.484h-.97v7.653h-2.806V10.439zm3.827 7.653c.561 0 .978-.145 1.25-.434.29-.289.434-.774.434-1.454v-1.378c0-.646-.12-1.113-.358-1.402-.22-.29-.578-.434-1.07-.434h-1.276v5.102h1.02zm6.462-7.653h2.806v17.857h-2.806V10.439zm8.556 18.112c-1.36 0-2.39-.383-3.087-1.148-.697-.782-1.046-1.896-1.046-3.342v-1.02h2.653v1.224c0 1.157.485 1.735 1.454 1.735.477 0 .834-.136 1.072-.408.255-.29.383-.748.383-1.378 0-.748-.17-1.403-.51-1.964-.34-.578-.97-1.267-1.889-2.066-1.156-1.02-1.964-1.94-2.423-2.755-.46-.834-.689-1.77-.689-2.807 0-1.411.357-2.5 1.072-3.265.714-.782 1.751-1.173 3.112-1.173 1.344 0 2.355.39 3.036 1.173.697.765 1.046 1.87 1.046 3.317v.74h-2.654v-.92c0-.611-.119-1.053-.357-1.326-.238-.289-.586-.433-1.046-.433-.935 0-1.403.57-1.403 1.709 0 .646.17 1.25.51 1.811.358.561.995 1.242 1.914 2.04 1.173 1.021 1.981 1.948 2.423 2.781.443.834.664 1.812.664 2.934 0 1.463-.366 2.585-1.097 3.368-.715.782-1.76 1.173-3.138 1.173zm9.929-18.112h4.133c1.394 0 2.44.374 3.138 1.122.697.748 1.045 1.845 1.045 3.291v1.76c0 1.446-.348 2.543-1.045 3.291-.698.748-1.744 1.123-3.138 1.123h-1.327v7.27h-2.806V10.439zm4.133 8.035c.459 0 .8-.127 1.02-.382.238-.255.357-.689.357-1.301v-2.117c0-.613-.119-1.046-.357-1.302-.22-.255-.561-.382-1.02-.382h-1.327v5.484h1.327zm6.979-8.035h3.801l2.908 17.857h-2.806l-.51-3.546v.051h-3.189l-.51 3.495h-2.602l2.908-17.857zm3.061 11.939l-1.25-8.827h-.05l-1.225 8.827h2.525zm9.041 6.173c-1.36 0-2.397-.383-3.112-1.148-.714-.782-1.071-1.896-1.071-3.342V10.44h2.806v13.826c0 .613.119 1.055.357 1.327.255.272.612.408 1.072.408.459 0 .807-.136 1.045-.408.256-.272.383-.714.383-1.327V10.44h2.704v13.62c0 1.446-.357 2.56-1.071 3.342-.715.765-1.752 1.148-3.113 1.148zm6.183-18.112h2.806v15.306h4.617v2.55H79.83V10.44zm8.769 15.153h2.704v2.704h-2.704v-2.704z" fill="#E6EDE6"/></svg>